# xmcd
#
# Track frame offsets: 
#        150
#        9806
#        24955
#        32615
#        41584
#        51552
#        64248
#        73321
#        81773
#        91141
#        103649
#        112883
#        124532
#        133559
#        143514
#        156285
#        167073
#        176673
#        189814
#        199850
#        210683
#        220981
#        231687
#        242725
#        253450
#        268693
#
# Disc length: 3736 seconds
#
# Revision: 2
# Processed by: cddbd v1.5.2PL0 Copyright (c) Steve Scherf et al.
# Submitted via: ExactAudioCopy v0.99pb5
#
DISCID=740e961a
DTITLE=Various Artist - The Later Jin Singles: The Promised Land
DYEAR=2004
DGENRE=Country
TTITLE0=Johnnie Allan - The Promised Land
TTITLE1=Tommy McClain - Sweet Dreams
TTITLE2=Rockin' Sidney - You Ain't Nothin' But Fine
TTITLE3=Rockin' Sidney - No Good Woman
TTITLE4=Randy and The Rockets - Rocket's Twist
TTITLE5=Randy and The Rockets - No More Trouble
TTITLE6=Billy Lewis and The Rockin' Hearts - Growing Old
TTITLE7=Billy Lewis and The Rockin' Hearts - Show Me How to Twist
TTITLE8=Lee Martin with The Velvetones - Lover's Plea
TTITLE9=Ronnie Bennett with Johnny Winter's Band - Traveling Mood
TTITLE10=Otis Smith - Sunday School Woman
TTITLE11=Rockin' Dave Allen - My Little Darling
TTITLE12=Lonesome George - Send Me Your Lovin' My Way
TTITLE13=Rockin' Sidney - It Really is a Hurtin' Thing
TTITLE14=Clint West and The Fabulous Boogie Kings - Boogie Chillun
TTITLE15=Skip Stewart - Take Her Back
TTITLE16=Kenny Tibbs and The Jokers - Living in a Dream
TTITLE17=Clint West - When My Heart Hurts No More
TTITLE18=Clint West and The Boogie Kings - Night Train
TTITLE19=Margo White - I'm Not Ashamed
TTITLE20=Johnnie Allan and The Krazy Kats - Lonely Weekends
TTITLE21=Clint West and The Boogie Kings - Try Me
TTITLE22=Johnnie Allan - Pont Breaux
TTITLE23=Prentice Thomas - Bad Moon Rising
TTITLE24=Rod Bernard and Clifton Chenier - Shake Rattle and Roll
TTITLE25=Rufus Jagneaux - Opelousas Sostan
EXTD=
EXTT0=
EXTT1=
EXTT2=
EXTT3=
EXTT4=
EXTT5=
EXTT6=
EXTT7=
EXTT8=
EXTT9=
EXTT10=
EXTT11=
EXTT12=
EXTT13=
EXTT14=
EXTT15=
EXTT16=
EXTT17=
EXTT18=
EXTT19=
EXTT20=
EXTT21=
EXTT22=
EXTT23=
EXTT24=
EXTT25=
PLAYORDER=
